HIERARCHY
ROOT Root
{
  OFFSET 0.0 0.0 0.0
  CHANNELS 6 Xposition Yposition Zposition Zrotation Yrotation Xrotation
  JOINT Hips
  {
    OFFSET 0.0 100.0 0.0
    CHANNELS 6 Xposition Yposition Zposition Zrotation Yrotation Xrotation
    JOINT Spine1
    {
      OFFSET -0.013727 5.003763 -0.053727
      CHANNELS 3 Zrotation Yrotation Xrotation
      JOINT Spine2
      {
        OFFSET -0.0 7.125301 -0.029825
        CHANNELS 3 Zrotation Yrotation Xrotation
        JOINT Chest
        {
          OFFSET -1e-06 7.550063 -0.815971
          CHANNELS 3 Zrotation Yrotation Xrotation
          JOINT Neck1
          {
            OFFSET -0.181677 26.311295 -0.553348
            CHANNELS 3 Zrotation Yrotation Xrotation
            JOINT Neck2
            {
              OFFSET -3e-06 7.709397 2.302585
              CHANNELS 3 Zrotation Yrotation Xrotation
              JOINT Head
              {
                OFFSET -5e-06 6.128916 1.953709
                CHANNELS 3 Zrotation Yrotation Xrotation
                JOINT HeadEnd
                {
                  OFFSET 0.003598 16.065403 -1.835379
                  CHANNELS 3 Zrotation Yrotation Xrotation
                }
                JOINT Jaw
                {
                  OFFSET 0.002637 0.475592 3.094941
                  CHANNELS 3 Zrotation Yrotation Xrotation
                }
                JOINT LeftEye
                {
                  OFFSET 3.206381 5.380205 7.586883
                  CHANNELS 3 Zrotation Yrotation Xrotation
                }
                JOINT RightEye
                {
                  OFFSET -3.22244 5.361869 7.558234
                  CHANNELS 3 Zrotation Yrotation Xrotation
                }
              }
            }
          }
          JOINT LeftShoulder
          {
            OFFSET 1.621652 23.237164 5.113413
            CHANNELS 3 Zrotation Yrotation Xrotation
            JOINT LeftArm
            {
              OFFSET 14.919846 2e-06 -5.502326
              CHANNELS 3 Zrotation Yrotation Xrotation
              JOINT LeftForeArm
              {
                OFFSET 28.739307 0.0 -0.002588
                CHANNELS 3 Zrotation Yrotation Xrotation
                JOINT LeftHand
                {
                  OFFSET 27.093981 -1e-06 0.002609
                  CHANNELS 3 Zrotation Yrotation Xrotation
                  JOINT LeftHandThumb1
                  {
                    OFFSET 2.276482 -1.392045 3.191413
                    CHANNELS 3 Zrotation Yrotation Xrotation
                    JOINT LeftHandThumb2
                    {
                      OFFSET 4.012836 -1.828127 1.641654
                      CHANNELS 3 Zrotation Yrotation Xrotation
                      JOINT LeftHandThumb3
                      {
                        OFFSET 2.798515 0.0 -3e-06
                        CHANNELS 3 Zrotation Yrotation Xrotation
                        JOINT LeftHandThumbEnd
                        {
                          OFFSET 3.180793 -4e-06 4e-06
                          CHANNELS 3 Zrotation Yrotation Xrotation
                        }
                      }
                    }
                  }
                  JOINT LeftHandIndex1
                  {
                    OFFSET 3.247555 -0.531998 2.296169
                    CHANNELS 3 Zrotation Yrotation Xrotation
                    JOINT LeftHandIndex2
                    {
                      OFFSET 6.364578 0.01206 0.1786
                      CHANNELS 3 Zrotation Yrotation Xrotation
                      JOINT LeftHandIndex3
                      {
                        OFFSET 3.662364 0.0 0.0
                        CHANNELS 3 Zrotation Yrotation Xrotation
                        JOINT LeftHandIndex4
                        {
                          OFFSET 2.329242 4e-06 4e-06
                          CHANNELS 3 Zrotation Yrotation Xrotation
                          JOINT LeftHandIndexEnd
                          {
                            OFFSET 2.759615 -0.180537 -0.113024
                            CHANNELS 3 Zrotation Yrotation Xrotation
                          }
                        }
                      }
                    }
                  }
                  JOINT LeftHandMiddle1
                  {
                    OFFSET 3.163495 0.240981 1.000332
                    CHANNELS 3 Zrotation Yrotation Xrotation
                    JOINT LeftHandMiddle2
                    {
                      OFFSET 6.19078 -0.259278 -1.002548
                      CHANNELS 3 Zrotation Yrotation Xrotation
                      JOINT LeftHandMiddle3
                      {
                        OFFSET 4.35652 -4e-06 -1e-06
                        CHANNELS 3 Zrotation Yrotation Xrotation
                        JOINT LeftHandMiddle4
                        {
                          OFFSET 2.996877 -8e-06 0.0
                          CHANNELS 3 Zrotation Yrotation Xrotation
                          JOINT LeftHandMiddleEnd
                          {
                            OFFSET 2.304287 -0.294569 -0.031741
                            CHANNELS 3 Zrotation Yrotation Xrotation
                          }
                        }
                      }
                    }
                  }
                  JOINT LeftHandRing1
                  {
                    OFFSET 2.882643 -0.053652 -0.322543
                    CHANNELS 3 Zrotation Yrotation Xrotation
                    JOINT LeftHandRing2
                    {
                      OFFSET 5.854541 -0.486202 -1.373841
                      CHANNELS 3 Zrotation Yrotation Xrotation
                      JOINT LeftHandRing3
                      {
                        OFFSET 4.350578 0.0 3e-06
                        CHANNELS 3 Zrotation Yrotation Xrotation
                        JOINT LeftHandRing4
                        {
                          OFFSET 2.651321 7e-06 2e-06
                          CHANNELS 3 Zrotation Yrotation Xrotation
                          JOINT LeftHandRingEnd
                          {
                            OFFSET 1.936105 0.077687 -7.1e-05
                            CHANNELS 3 Zrotation Yrotation Xrotation
                          }
                        }
                      }
                    }
                  }
                  JOINT LeftHandPinky1
                  {
                    OFFSET 2.8655 -0.310005 -1.600378
                    CHANNELS 3 Zrotation Yrotation Xrotation
                    JOINT LeftHandPinky2
                    {
                      OFFSET 5.087849 -1.331141 -1.77123
                      CHANNELS 3 Zrotation Yrotation Xrotation
                      JOINT LeftHandPinky3
                      {
                        OFFSET 3.070974 4e-06 0.0
                        CHANNELS 3 Zrotation Yrotation Xrotation
                        JOINT LeftHandPinky4
                        {
                          OFFSET 1.549672 0.0 1e-06
                          CHANNELS 3 Zrotation Yrotation Xrotation
                          JOINT LeftHandPinkyEnd
                          {
                            OFFSET 1.944893 -0.157802 0.057219
                            CHANNELS 3 Zrotation Yrotation Xrotation
                          }
                        }
                      }
                    }
                  }
                }
              }
            }
          }
          JOINT RightShoulder
          {
            OFFSET -1.380118 23.180309 5.214158
            CHANNELS 3 Zrotation Yrotation Xrotation
            JOINT RightArm
            {
              OFFSET -15.037196 1.2e-05 -5.545604
              CHANNELS 3 Zrotation Yrotation Xrotation
              JOINT RightForeArm
              {
                OFFSET -28.736639 2e-06 -0.002597
                CHANNELS 3 Zrotation Yrotation Xrotation
                JOINT RightHand
                {
                  OFFSET -27.133619 -0.0 0.002613
                  CHANNELS 3 Zrotation Yrotation Xrotation
                  JOINT RightHandThumb1
                  {
                    OFFSET -2.274032 -1.383988 3.163127
                    CHANNELS 3 Zrotation Yrotation Xrotation
                    JOINT RightHandThumb2
                    {
                      OFFSET -4.011429 -1.827466 1.640914
                      CHANNELS 3 Zrotation Yrotation Xrotation
                      JOINT RightHandThumb3
                      {
                        OFFSET -2.794935 -4e-06 -3e-06
                        CHANNELS 3 Zrotation Yrotation Xrotation
                        JOINT RightHandThumbEnd
                        {
                          OFFSET -3.183852 4e-06 1e-06
                          CHANNELS 3 Zrotation Yrotation Xrotation
                        }
                      }
                    }
                  }
                  JOINT RightHandIndex1
                  {
                    OFFSET -3.253266 -0.520057 2.282866
                    CHANNELS 3 Zrotation Yrotation Xrotation
                    JOINT RightHandIndex2
                    {
                      OFFSET -6.341917 0.012471 0.178266
                      CHANNELS 3 Zrotation Yrotation Xrotation
                      JOINT RightHandIndex3
                      {
                        OFFSET -3.654871 -8e-06 -0.0
                        CHANNELS 3 Zrotation Yrotation Xrotation
                        JOINT RightHandIndex4
                        {
                          OFFSET -2.327586 0.0 1e-06
                          CHANNELS 3 Zrotation Yrotation Xrotation
                          JOINT RightHandIndexEnd
                          {
                            OFFSET -2.76179 -0.180656 -0.113078
                            CHANNELS 3 Zrotation Yrotation Xrotation
                          }
                        }
                      }
                    }
                  }
                  JOINT RightHandMiddle1
                  {
                    OFFSET -3.168106 0.246593 1.00103
                    CHANNELS 3 Zrotation Yrotation Xrotation
                    JOINT RightHandMiddle2
                    {
                      OFFSET -6.180828 -0.258836 -1.000895
                      CHANNELS 3 Zrotation Yrotation Xrotation
                      JOINT RightHandMiddle3
                      {
                        OFFSET -4.348901 0.0 -0.0
                        CHANNELS 3 Zrotation Yrotation Xrotation
                        JOINT RightHandMiddle4
                        {
                          OFFSET -3.00024 -4e-06 -2e-06
                          CHANNELS 3 Zrotation Yrotation Xrotation
                          JOINT RightHandMiddleEnd
                          {
                            OFFSET -2.30252 -0.29437 -0.031706
                            CHANNELS 3 Zrotation Yrotation Xrotation
                          }
                        }
                      }
                    }
                  }
                  JOINT RightHandRing1
                  {
                    OFFSET -2.88569 -0.067952 -0.308858
                    CHANNELS 3 Zrotation Yrotation Xrotation
                    JOINT RightHandRing2
                    {
                      OFFSET -5.854198 -0.48613 -1.373731
                      CHANNELS 3 Zrotation Yrotation Xrotation
                      JOINT RightHandRing3
                      {
                        OFFSET -4.33881 -4e-06 -0.0
                        CHANNELS 3 Zrotation Yrotation Xrotation
                        JOINT RightHandRing4
                        {
                          OFFSET -2.654903 -4e-06 4e-06
                          CHANNELS 3 Zrotation Yrotation Xrotation
                          JOINT RightHandRingEnd
                          {
                            OFFSET -1.933568 0.077527 -5.2e-05
                            CHANNELS 3 Zrotation Yrotation Xrotation
                          }
                        }
                      }
                    }
                  }
                  JOINT RightHandPinky1
                  {
                    OFFSET -2.866425 -0.342796 -1.584145
                    CHANNELS 3 Zrotation Yrotation Xrotation
                    JOINT RightHandPinky2
                    {
                      OFFSET -5.091371 -1.332055 -1.772385
                      CHANNELS 3 Zrotation Yrotation Xrotation
                      JOINT RightHandPinky3
                      {
                        OFFSET -3.062664 -4e-06 1e-06
                        CHANNELS 3 Zrotation Yrotation Xrotation
                        JOINT RightHandPinky4
                        {
                          OFFSET -1.546529 4e-06 -2e-06
                          CHANNELS 3 Zrotation Yrotation Xrotation
                          JOINT RightHandPinkyEnd
                          {
                            OFFSET -1.945119 -0.157718 0.057211
                            CHANNELS 3 Zrotation Yrotation Xrotation
                          }
                        }
                      }
                    }
                  }
                }
              }
            }
          }
        }
      }
    }
    JOINT LeftLeg
    {
      OFFSET 10.043214 -8.434526 2.595655
      CHANNELS 3 Zrotation Yrotation Xrotation
      JOINT LeftShin
      {
        OFFSET -1e-06 -43.221752 -0.802913
        CHANNELS 3 Zrotation Yrotation Xrotation
        JOINT LeftFoot
        {
          OFFSET 1e-06 -42.155094 -3.481523
          CHANNELS 3 Zrotation Yrotation Xrotation
          JOINT LeftToeBase
          {
            OFFSET 0.0 -5.059472 13.231529
            CHANNELS 3 Zrotation Yrotation Xrotation
            JOINT LeftToeEnd
            {
              OFFSET -0.009607 -1.647619 6.513017
              CHANNELS 3 Zrotation Yrotation Xrotation
            }
          }
        }
      }
    }
    JOINT RightLeg
    {
      OFFSET -10.047278 -8.29526 2.620317
      CHANNELS 3 Zrotation Yrotation Xrotation
      JOINT RightShin
      {
        OFFSET 1e-06 -43.362206 -0.805556
        CHANNELS 3 Zrotation Yrotation Xrotation
        JOINT RightFoot
        {
          OFFSET 2e-06 -42.117393 -3.478398
          CHANNELS 3 Zrotation Yrotation Xrotation
          JOINT RightToeBase
          {
            OFFSET -0.0 -5.079609 13.284196
            CHANNELS 3 Zrotation Yrotation Xrotation
            JOINT RightToeEnd
            {
              OFFSET 0.009532 -1.634378 6.460591
              CHANNELS 3 Zrotation Yrotation Xrotation
            }
          }
        }
      }
    }
  }
}
MOTION
Frames: 4
Frame Time: 0.03333333333333333
-2.073733 0.0 -7.216599 0.0 -0.0 0.0 0.0 96.209892 0.0 -1.377292 -0.259201 1.704564 1.879559 0.403431 -2.774322 -0.374646 0.365982 -6.54622 -1.199681 -1.158468 23.135073 -1.44706 3.953339 21.792635 -0.52237 -0.083916 -3.919476 -0.06096 -0.896727 -8.621885 0.000109 -0.000296 -0.006654 -0.029284 0.051067 -0.069678 0.583954 -3.686745 -10.559884 -0.647663 3.784534 -10.570231 -10.22766 -15.943034 22.473043 -58.907261 -19.482391 13.501074 -0.515231 -24.76424 -0.144208 4.138481 0.216851 -22.837099 -5.911633 9.795953 0.814539 -10.909722 -0.328779 7.175013 -0.003876 8.796311 0.005283 -16.635847 18.613115 5.817409 -1.851505 2.503608 -2.498513 -10.180785 4.688923 4.608104 -21.012331 -0.00272 0.004153 -21.259369 2.469643 -3.597731 0.00241 -0.005429 0.003813 -1.375177 2.263428 -0.731033 -21.378544 0.568474 2.993451 -13.848658 0.002918 0.013983 -23.934599 -0.247337 -0.847819 -61.236607 2.415937 -1.187381 -0.308166 1.714225 0.834876 -14.232028 0.06869 1.318058 -34.272903 -0.275248 0.958188 -20.054346 0.957218 1.20259 -0.00707 0.004112 0.00236 -3.479478 0.830524 0.496985 -15.920743 -3.18982 3.006109 -6.35267 0.000965 0.004141 -18.173409 3.644717 -4.897669 0.001179 -0.00042 -0.002362 14.757355 22.785601 24.674578 51.072445 25.189062 22.203196 -0.684365 36.16423 -0.066447 -1.729445 -7.454462 -30.134563 2.209109 -5.207226 -3.169796 14.264729 -0.848036 6.937345 0.000684 -12.709036 0.01503 16.405712 -17.832178 2.254557 1.668994 -1.940279 -2.878008 4.733612 -4.189273 4.99973 11.028592 0.006949 -0.001645 12.106826 -3.738699 -2.873973 0.002226 -0.000207 0.009524 1.298558 -1.944471 -1.504343 14.806942 0.586248 3.882214 14.254649 -1.361712 -6.675224 19.664076 0.140167 -0.679167 49.818108 -0.328879 -6.644858 0.357823 -1.522238 -0.02615 20.22912 3.7068 2.325037 18.803818 0.00532 -0.022232 10.759861 -0.478909 1.392895 -0.009012 -0.005454 -0.00022 3.301573 0.286896 -0.577924 21.477732 11.853397 2.249884 8.175678 -0.000259 0.009812 18.411499 -3.791112 -4.956233 -0.017445 0.000534 0.011098 1.904416 0.710898 -30.775856 -0.116067 0.04575 10.863488 -4.790835 1.978491 2.571652 1.590452 -1.812216 -4.043039 -6.5e-05 -0.000114 -0.002262 4.594497 4.849265 -2.517605 -0.113301 0.065543 26.025 -3.27402 -3.96446 -20.358086 -1.469922 0.930487 -1.097414 -1.1e-05 -0.000185 -0.000732 
-1.875814 0.0 -4.253084 0.0 -0.0 0.0 0.0 95.854774 0.0 -1.482955 -0.598238 1.620896 1.956515 0.474422 -2.708239 -0.358627 0.548734 -6.552134 -1.193098 -1.035776 23.086254 -1.85081 4.248976 21.704023 -0.627503 0.084202 -3.787588 -0.0252 -0.858509 -8.615322 -0.00074 -0.000352 -0.0043 -0.048009 0.095734 -0.028966 0.56546 -3.640755 -10.535991 -0.660639 3.824726 -10.558889 -10.592826 -15.446359 22.394262 -59.063454 -19.234127 13.629253 -0.392159 -25.223286 -0.128661 4.21867 0.271271 -22.380173 -5.895766 9.823333 0.754168 -10.927432 -0.348461 7.180981 0.003967 8.780149 -0.014788 -16.479431 18.673752 5.982608 -1.846641 2.500962 -2.511161 -10.173335 4.688752 4.622161 -21.005501 -0.003114 -0.007198 -21.271132 2.45346 -3.599055 0.002909 -0.006603 0.00185 -1.367111 2.253621 -0.745383 -21.359791 0.578559 3.013055 -13.833983 -0.001198 0.006041 -23.936058 -0.258473 -0.835436 -61.458328 2.498055 -1.111519 -0.297702 1.696449 0.832353 -14.226581 0.086236 1.306373 -34.244324 -0.290854 0.958261 -20.046179 0.963992 1.216082 -0.007062 -0.002966 0.00883 -3.463517 0.808963 0.491265 -15.930981 -3.182145 3.012743 -6.350742 -0.005657 -0.003673 -18.139391 3.655027 -4.918227 3e-06 -0.001756 -0.004942 14.666099 22.803198 24.980988 51.237679 25.394924 21.934496 -0.590114 36.57893 0.046204 -1.329741 -7.391794 -30.527428 2.26906 -5.176313 -3.167173 14.255089 -0.840834 6.942451 -0.002091 -12.71577 0.004861 16.475107 -17.799957 2.329733 1.673837 -1.956459 -2.884178 4.736431 -4.166413 4.997928 11.039916 -0.001945 0.017068 12.15361 -3.719891 -2.897012 -0.004863 -0.003136 0.008323 1.302658 -1.935483 -1.494734 14.829556 0.587145 3.851545 14.267182 -1.356965 -6.650403 19.699406 0.14574 -0.663013 49.841652 -0.359755 -6.474216 0.366348 -1.525435 -0.027114 20.258612 3.709021 2.327124 18.849195 0.025139 0.012854 10.754901 -0.46482 1.388701 0.015537 0.008133 -0.006076 3.30459 0.281847 -0.611869 21.543663 11.881564 2.325247 8.170234 0.014061 -0.01824 18.471924 -3.790598 -4.957892 0.007354 0.001385 -0.013775 1.999294 0.893561 -31.802752 -0.087811 0.099518 9.948371 -3.592421 2.216309 2.614394 1.603264 -1.781078 -4.016949 0.000455 -1e-06 0.01158 4.730135 4.89467 -0.011126 -0.185627 0.064899 25.350098 -3.095855 -4.238602 -20.461704 -1.472956 0.870976 -1.661216 -0.000195 -0.000286 -0.004188 
-1.640292 0.0 -1.348317 0.0 -0.0 0.0 0.0 95.476028 0.0 -1.360337 -0.934792 1.520169 1.822843 0.518438 -2.832407 -0.372434 0.697171 -6.601814 -1.267146 -0.902046 23.186573 -2.193254 4.437908 21.539791 -0.631246 0.18761 -3.724384 0.035848 -0.633974 -8.609889 6.9e-05 0.000833 0.004178 -0.049347 0.105392 0.008106 0.568197 -3.630231 -10.516383 -0.670312 3.827235 -10.545952 -11.486498 -14.574167 22.425598 -59.021599 -18.859138 13.568155 -0.205476 -25.563515 -0.111496 4.24002 0.377715 -21.563187 -5.868618 9.828231 0.777397 -10.9344 -0.343958 7.167361 -0.002473 8.790122 0.002673 -16.485214 18.700865 6.011822 -1.846115 2.502699 -2.511898 -10.167173 4.681494 4.617358 -20.9688 0.004751 -0.006619 -21.240446 2.459507 -3.611616 -0.001603 0.005193 0.002374 -1.367555 2.265216 -0.752161 -21.347273 0.564737 3.018443 -13.834099 0.003711 -0.006152 -23.902122 -0.245477 -0.847262 -61.307156 2.517563 -1.157198 -0.297044 1.700029 0.828976 -14.22256 0.074592 1.306696 -34.221706 -0.29197 0.967707 -20.05834 0.962829 1.224849 0.008215 0.005747 0.002413 -3.453517 0.821116 0.482418 -15.931965 -3.202417 3.008055 -6.342784 -0.003278 0.009554 -18.133648 3.649201 -4.908159 -0.001923 0.003235 0.008119 15.684126 22.964542 26.365337 51.030811 25.56745 21.674625 -0.688089 36.524418 -0.070996 -0.992882 -7.231695 -31.02257 2.228969 -5.279376 -3.255728 14.305616 -0.807415 6.89689 0.005113 -12.678271 -0.007432 16.381138 -17.858068 2.478552 1.664066 -1.958646 -2.85617 4.725243 -4.16096 4.986177 11.011896 0.002368 -0.002978 12.084331 -3.723665 -2.843305 -0.004498 0.001024 -0.01322 1.289115 -1.924761 -1.49724 14.785685 0.557007 3.872376 14.221455 -1.336966 -6.660977 19.618883 0.157714 -0.637138 49.723385 -0.342219 -6.327085 0.353657 -1.511857 -0.01797 20.210772 3.687532 2.323422 18.759146 -0.000909 -0.020989 10.733231 -0.473619 1.399901 0.001105 -0.000321 -0.001186 3.263519 0.314418 -0.562793 21.483721 11.804508 2.263343 8.157866 0.00213 -0.005285 18.367558 -3.78487 -4.924224 0.001324 -0.006428 -0.005842 1.681873 0.939909 -32.502422 -0.055542 0.174212 10.733908 -2.680007 2.051141 2.964228 1.619938 -1.809559 -4.050408 -0.000613 0.000223 -0.001766 4.451075 4.636372 2.259991 -0.225654 0.050694 25.202593 -3.12519 -3.682494 -20.307423 -1.452937 0.819526 -2.560212 -0.000156 -9.4e-05 -0.002874 
-1.288838 0.0 1.531255 0.0 -0.0 0.0 0.0 95.110146 0.0 -0.959278 -1.425492 1.53065 1.47793 0.548958 -3.083631 -0.419133 0.818049 -6.747543 -1.462987 -0.629393 23.354134 -2.446706 4.652503 21.434265 -0.605781 0.255613 -3.664752 0.206388 -0.416962 -8.550188 0.000592 -0.000579 -0.002402 -0.047134 0.103547 0.00808 0.57096 -3.629776 -10.512028 -0.671152 3.828986 -10.552961 -11.920989 -14.333801 22.412119 -58.968536 -18.71134 13.772912 -0.039454 -25.395725 -0.085246 4.154336 0.517923 -20.923828 -5.900992 9.782397 0.917359 -10.963077 -0.331034 7.24316 -0.000557 8.790828 0.001631 -16.458895 18.734261 6.01971 -1.841433 2.498291 -2.526807 -10.160645 4.685954 4.616388 -20.980433 0.005858 0.012807 -21.229891 2.463412 -3.60044 0.003388 -0.010222 0.001279 -1.359961 2.255641 -0.763872 -21.329456 0.576687 3.01292 -13.827775 0.002637 0.007208 -23.898071 -0.237655 -0.8337 -61.052597 2.584638 -1.214785 -0.2895 1.698693 0.804202 -14.219538 0.074251 1.316541 -34.237396 -0.278496 0.976036 -20.020647 0.982369 1.216306 0.005376 0.00618 -0.000247 -3.437441 0.814965 0.469841 -15.92712 -3.190042 3.007909 -6.334342 0.007052 0.004697 -18.095011 3.668702 -4.906138 -0.007844 -0.001114 0.002902 15.631165 22.973692 26.374598 51.096424 25.681015 21.61869 -0.616566 36.40387 -0.047929 -0.816869 -7.069834 -30.858528 2.25499 -5.218722 -3.061277 14.315619 -0.824838 7.002908 0.012649 -12.686518 -0.005664 16.294088 -17.920458 2.566411 1.65142 -1.952802 -2.906157 4.73228 -4.170486 4.993174 11.016028 -0.004176 0.025387 12.107617 -3.722779 -2.864488 -0.008725 0.001575 -0.006747 1.284022 -1.913465 -1.527605 14.799847 0.538613 3.859128 14.258687 -1.350807 -6.639218 19.667448 0.138682 -0.658524 49.863651 -0.470223 -6.487788 0.341948 -1.507228 -0.05514 20.21377 3.675041 2.321529 18.799086 -0.020944 0.025275 10.758755 -0.472458 1.379198 -0.010107 -0.008081 0.012002 3.26363 0.32459 -0.610797 21.49296 11.793152 2.251532 8.163367 0.001999 0.012925 18.386225 -3.822318 -4.924246 0.002561 -0.000851 -0.011277 1.056412 0.76064 -32.931641 -0.012755 0.262062 13.408466 -1.371879 1.679178 3.667356 1.612749 -1.892686 -4.095575 0.000142 0.000556 0.003097 3.555162 4.018148 3.906842 -0.236252 0.092658 25.987728 -3.041967 -2.525132 -19.501356 -1.441361 0.821322 -4.040016 -0.000725 -0.000968 0.00133 
